<svg width="110" height="109" viewBox="0 0 110 109" fill="none" xmlns="http://www.w3.org/2000/svg">
<path d="M106.992 41.8877C105.201 34.5059 101.859 27.5899 97.1882 21.6001C92.5171 15.6102 86.624 10.6836 79.9009 7.14819L55 54.5L106.992 41.8877Z" fill="#F6AD55" stroke="white" stroke-width="2"/>
<path d="M79.955 7.17666C73.3239 3.6799 66.032 1.61575 58.5519 1.11804C51.0719 0.620332 43.5708 1.70018 36.5348 4.28757C29.4989 6.87496 23.0853 10.9121 17.7098 16.1373C12.3343 21.3625 8.11699 27.6591 5.33119 34.6189L55 54.5L79.955 7.17666Z" fill="#FEEA39" stroke="white" stroke-width="2"/>
<path d="M5.33235 34.616C1.18624 44.9724 0.381188 56.3658 3.02982 67.2024C5.67846 78.0389 11.6483 87.7765 20.1041 95.0528C28.56 102.329 39.0789 106.78 50.1892 107.783C61.2996 108.786 72.4456 106.291 82.068 100.647L55 54.5L5.33235 34.616Z" fill="#48BB78" stroke="white" stroke-width="2"/>
<path d="M82.0128 100.68C91.9647 94.8583 99.7697 85.9778 104.265 75.361L55 54.5L82.0128 100.68Z" fill="#4FD1C5" stroke="white" stroke-width="2"/>
<path d="M104.259 75.3769C108.758 64.7615 109.707 52.9767 106.965 41.778L55 54.5L104.259 75.3769Z" fill="#F56565" stroke="white" stroke-width="2"/>
</svg>
