<svg width="26" height="25" viewBox="0 0 26 25" fill="none" xmlns="http://www.w3.org/2000/svg">
<path d="M21.9062 1.74878H4.09375C3.22427 1.75125 2.39111 2.09775 1.77629 2.71257C1.16147 3.32739 0.814974 4.16055 0.8125 5.03003V16.28C0.814974 17.1495 1.16147 17.9827 1.77629 18.5975C2.39111 19.2123 3.22427 19.5588 4.09375 19.5613H6.4375V24.2488L11.9289 19.6703C12.0132 19.5998 12.1196 19.5613 12.2295 19.5613H21.9062C22.7757 19.5588 23.6089 19.2123 24.2237 18.5975C24.8385 17.9827 25.185 17.1495 25.1875 16.28V5.03003C25.185 4.16055 24.8385 3.32739 24.2237 2.71257C23.6089 2.09775 22.7757 1.75125 21.9062 1.74878V1.74878Z" stroke="#3182CE" stroke-width="1.5" stroke-linejoin="round"/>
</svg>
