<svg width="46" height="46" viewBox="0 0 46 46" fill="none" xmlns="http://www.w3.org/2000/svg">
<path fill-rule="evenodd" clip-rule="evenodd" d="M14.375 0H31.625C39.5629 0 46 6.43712 46 14.375V31.625C46 39.5629 39.5629 46 31.625 46H14.375C6.43712 46 0 39.5629 0 31.625V14.375C0 6.43712 6.43712 0 14.375 0ZM31.6249 41.6875C37.1737 41.6875 41.6874 37.1737 41.6874 31.625V14.375C41.6874 8.82625 37.1737 4.3125 31.6249 4.3125H14.3749C8.8262 4.3125 4.31245 8.82625 4.31245 14.375V31.625C4.31245 37.1737 8.8262 41.6875 14.3749 41.6875H31.6249ZM11.5 23C11.5 16.6491 16.6491 11.5 23 11.5C29.3509 11.5 34.5 16.6491 34.5 23C34.5 29.3509 29.3509 34.5 23 34.5C16.6491 34.5 11.5 29.3509 11.5 23ZM15.8124 23C15.8124 26.9618 19.0382 30.1875 22.9999 30.1875C26.9617 30.1875 30.1874 26.9618 30.1874 23C30.1874 19.0354 26.9617 15.8125 22.9999 15.8125C19.0382 15.8125 15.8124 19.0354 15.8124 23ZM35.3625 12.1692C36.2088 12.1692 36.8948 11.4832 36.8948 10.6369C36.8948 9.79056 36.2088 9.10449 35.3625 9.10449C34.5161 9.10449 33.8301 9.79056 33.8301 10.6369C33.8301 11.4832 34.5161 12.1692 35.3625 12.1692Z" fill="url(#paint0_linear)"/>
<defs>
<linearGradient id="paint0_linear" x1="0" y1="0" x2="46" y2="46" gradientUnits="userSpaceOnUse">
<stop stop-color="#5A7DFB"/>
<stop offset="0.484375" stop-color="#EB3AF7"/>
<stop offset="1" stop-color="#F02E2E"/>
</linearGradient>
</defs>
</svg>
