<svg width="21" height="24" viewBox="0 0 21 24" fill="none" xmlns="http://www.w3.org/2000/svg">
<path d="M18.3531 3.00642C16.9074 3.00642 15.7353 4.17852 15.7353 5.62418V11.5959C15.7353 12.3066 15.1548 12.8786 14.4265 13.198V4.3153C14.4265 2.14715 12.668 0.388672 10.4998 0.388672C8.33167 0.388672 6.57319 2.14715 6.57319 4.3153V15.8524C5.83891 15.5415 5.26432 14.9552 5.26432 14.2137V10.8597C5.26432 9.41403 4.09222 8.24193 2.64656 8.24193C1.20091 8.24193 0.0288086 9.41403 0.0288086 10.8597V15.4408C0.0288086 16.8864 1.17408 17.9767 2.23754 18.5899C3.05166 19.0598 5.33369 19.637 6.57319 19.6704V21.9851C6.57319 24.1533 14.4265 24.1533 14.4265 21.9851V17.0448C15.7229 16.9669 17.8891 16.4211 18.6666 15.9722C19.73 15.3589 20.9708 14.2687 20.9708 12.823V5.62418C20.9708 4.17852 19.7987 3.00642 18.3531 3.00642Z" fill="#77B255"/>
</svg>
