<svg width="47" height="46" viewBox="0 0 47 46" fill="none" xmlns="http://www.w3.org/2000/svg">
<path d="M46.0508 8.42462C44.3402 9.175 42.5174 9.67238 40.617 9.91388C42.572 8.74662 44.0642 6.91237 44.7657 4.7015C42.9429 5.78825 40.9304 6.55587 38.7857 6.98425C37.0549 5.14137 34.5882 4 31.8972 4C26.6762 4 22.4729 8.23775 22.4729 13.4329C22.4729 14.1804 22.5362 14.8991 22.6914 15.5834C14.8513 15.201 7.91391 11.4434 3.25353 5.71925C2.43991 7.13087 1.96266 8.74662 1.96266 10.486C1.96266 13.752 3.64453 16.6471 6.15153 18.3232C4.63641 18.2945 3.15003 17.8546 1.89078 17.1617C1.89078 17.1905 1.89078 17.2279 1.89078 17.2653C1.89078 21.848 5.15966 25.6545 9.44628 26.5314C8.67866 26.7412 7.84203 26.8419 6.97378 26.8419C6.37003 26.8419 5.76053 26.8074 5.18841 26.6809C6.41028 30.4155 9.87753 33.1611 14.0003 33.2502C10.7918 35.7601 6.71791 37.2724 2.30766 37.2724C1.53428 37.2724 0.792531 37.2379 0.0507812 37.143C4.22816 39.8369 9.17891 41.375 14.5178 41.375C31.8713 41.375 41.3588 27 41.3588 14.5397C41.3588 14.1229 41.3444 13.7204 41.3243 13.3207C43.1959 11.9925 44.7685 10.3336 46.0508 8.42462Z" fill="#43E2F8"/>
</svg>
